<?xml version="1.0" encoding="utf-8"?>
<!-- Generator: Adobe Illustrator 19.0.0, SVG Export Plug-In . SVG Version: 6.00 Build 0)  -->
<svg version="1.1" id="Capa_1" xmlns="http://www.w3.org/2000/svg" xmlns:xlink="http://www.w3.org/1999/xlink" x="0px" y="0px"
	 viewBox="-397 398.1 284.9 284.9" style="enable-background:new -397 398.1 284.9 284.9;" xml:space="preserve">
<style type="text/css">
	.st0{fill:#FFFFFF;}
</style>
<g>
	<g>
		<path class="st0" d="M-261.1,565.9c1.9,1.9,4.1,2.9,6.6,2.9s4.7-0.9,6.6-2.9l133.1-133c1.9-1.9,2.8-4.1,2.8-6.6s-1-4.7-2.8-6.6
			l-14.3-14.3c-1.9-1.9-4.1-2.9-6.6-2.9c-2.5,0-4.7,1-6.6,2.9l-112.2,112.2l-112.2-112.2c-1.9-1.9-4.1-2.9-6.6-2.9
			c-2.5,0-4.7,1-6.6,2.9l-14.3,14.3c-1.9,1.9-2.9,4.1-2.9,6.6s1,4.7,2.9,6.6L-261.1,565.9z"/>
		<path class="st0" d="M-129.2,515.1c-1.9-1.9-4.1-2.9-6.6-2.9c-2.5,0-4.7,1-6.6,2.9l-112.2,112.2l-112.2-112.2
			c-1.9-1.9-4.1-2.9-6.6-2.9c-2.5,0-4.7,1-6.6,2.9l-14.3,14.3c-1.9,1.9-2.9,4.1-2.9,6.6c0,2.5,1,4.7,2.9,6.6l133,133
			c1.9,1.9,4.1,2.9,6.6,2.9s4.7-1,6.6-2.9l133.1-133c1.9-1.9,2.8-4.1,2.8-6.6c0-2.5-1-4.7-2.8-6.6L-129.2,515.1z"/>
	</g>
</g>
</svg>
